<?xml version="1.0" encoding="UTF-8"?>
<svg xmlns="http://www.w3.org/2000/svg" id="Outline" viewBox="0 0 512 512" width="512" height="512"><path d="M440,146.734a23.992,23.992,0,0,0,16.971-40.959L434.343,83.147a23.984,23.984,0,0,0-38.608,27.294l-23.151,23.152A198.941,198.941,0,0,0,288,98.572V78.624A24.039,24.039,0,0,0,304,56V40a24.027,24.027,0,0,0-24-24H232a24.027,24.027,0,0,0-24,24V56a24.039,24.039,0,0,0,16,22.624V98.572a198.941,198.941,0,0,0-84.584,35.021l-23.151-23.152A23.984,23.984,0,0,0,77.656,83.147L55.03,105.774a23.982,23.982,0,0,0,27.293,38.609l21.727,21.726A199.122,199.122,0,0,0,56,296c0,110.28,89.72,200,200,200s200-89.72,200-200a199.127,199.127,0,0,0-48.05-129.891l21.727-21.726A24.037,24.037,0,0,0,440,146.734ZM411.715,94.461a8.01,8.01,0,0,1,11.314,0l22.628,22.628A8,8,0,0,1,434.344,128.4l-22.628-22.627A8.011,8.011,0,0,1,411.715,94.461Zm-5.656,28.285,11.313,11.313-20.305,20.305q-5.673-5.65-11.792-10.835ZM224,40a8.009,8.009,0,0,1,8-8h48a8.009,8.009,0,0,1,8,8V56a8.009,8.009,0,0,1-8,8H232a8.009,8.009,0,0,1-8-8Zm16,40h32V96.641q-7.92-.63-16-.641t-16,.641ZM114.932,154.364l-20.3-20.305,11.313-11.313,20.784,20.783Q120.617,148.716,114.932,154.364ZM66.343,128.4a8,8,0,0,1,0-11.314L88.97,94.461a8,8,0,1,1,11.314,11.314L77.656,128.4A8.009,8.009,0,0,1,66.343,128.4ZM256,480C154.542,480,72,397.458,72,296s82.542-184,184-184,184,82.542,184,184S357.458,480,256,480Z"/><path d="M256,128c-92.636,0-168,75.364-168,168s75.364,168,168,168,168-75.364,168-168S348.636,128,256,128ZM400,304h7.79a151.406,151.406,0,0,1-38.856,93.621l-5.454-5.454a8,8,0,0,0-11.314,11.313l5.454,5.455A151.406,151.406,0,0,1,264,447.79V440a8,8,0,0,0-16,0v7.79a151.408,151.408,0,0,1-93.62-38.855l5.454-5.455a8,8,0,0,0-11.314-11.313l-5.454,5.454A151.406,151.406,0,0,1,104.21,304H112a8,8,0,0,0,0-16h-7.79a151.406,151.406,0,0,1,38.856-93.621l5.454,5.454a8,8,0,0,0,11.314-11.313l-5.454-5.455A151.408,151.408,0,0,1,248,144.21V152a8,8,0,0,0,16,0v-7.79a151.406,151.406,0,0,1,93.62,38.855l-5.454,5.455a8,8,0,1,0,11.314,11.313l5.454-5.454A151.406,151.406,0,0,1,407.79,288H400a8,8,0,0,0,0,16Z"/><path d="M341.657,274.343a8,8,0,0,0-11.314,11.314L332.686,288H278.624A24.119,24.119,0,0,0,264,273.376V243.314l2.343,2.343a8,8,0,1,0,11.314-11.314l-16-16a8,8,0,0,0-11.314,0l-16,16a8,8,0,0,0,11.314,11.314L248,243.314v30.062A24,24,0,1,0,278.624,304h54.062l-2.343,2.343a8,8,0,0,0,11.314,11.314l16-16a8,8,0,0,0,0-11.314ZM256,304a8,8,0,1,1,8-8A8.009,8.009,0,0,1,256,304Z"/></svg>
